PathFileType	4	(X/Y/Z)	/Users/itak/Documents/Research/Walk-IL/dataset/trc/00408_00012.trc
DataRate	CameraRate	NumFrames	NumMarkers	Units	OrigDataRate	OrigDataStartFrame	OrigNumFrames
100.000000	100.000000	4	55	mm	100.000000	588	673
Frame#	Time	RPSI			LPSI			L3			STRN			T10			C7			CLAV			RBAK			LBAK			LSHO			LUPA			LAEL			LAOL			LWTS			LWPS			LFRA			LHPS			LHTS			RSHO			RUPA			RAEL			RAOL			RWTS			RWPS			RFRA			RIFD			RHPS			RBHD			LFHD			RFHD			LBHD			LHIP			RHIP			RASI			LASI			LKNE			LTHI			LANK			LTIP			LTOE			LMT1			LMT5			LHEE			RKNE			RTHI			RANK			RTIP			RTOE			RMT1			RMT5			RHEE			RHTS			LIFD			*53			*54			
		X1	Y1	Z1	X2	Y2	Z2	X3	Y3	Z3	X4	Y4	Z4	X5	Y5	Z5	X6	Y6	Z6	X7	Y7	Z7	X8	Y8	Z8	X9	Y9	Z9	X10	Y10	Z10	X11	Y11	Z11	X12	Y12	Z12	X13	Y13	Z13	X14	Y14	Z14	X15	Y15	Z15	X16	Y16	Z16	X17	Y17	Z17	X18	Y18	Z18	X19	Y19	Z19	X20	Y20	Z20	X21	Y21	Z21	X22	Y22	Z22	X23	Y23	Z23	X24	Y24	Z24	X25	Y25	Z25	X26	Y26	Z26	X27	Y27	Z27	X28	Y28	Z28	X29	Y29	Z29	X30	Y30	Z30	X31	Y31	Z31	X32	Y32	Z32	X33	Y33	Z33	X34	Y34	Z34	X35	Y35	Z35	X36	Y36	Z36	X37	Y37	Z37	X38	Y38	Z38	X39	Y39	Z39	X40	Y40	Z40	X41	Y41	Z41	X42	Y42	Z42	X43	Y43	Z43	X44	Y44	Z44	X45	Y45	Z45	X46	Y46	Z46	X47	Y47	Z47	X48	Y48	Z48	X49	Y49	Z49	X50	Y50	Z50	X51	Y51	Z51	X52	Y52	Z52	X53	Y53	Z53	X54	Y54	Z54	X55	Y55	Z55	

589	5.88	844.496826171875	979.7828369140625	98.99996185302734	976.9254760742188	970.635986328125	103.1561737060547	909.2927856445312	1055.094360351562	100.0260620117188	890.15087890625	1211.400268554688	340.91845703125	916.6771850585938	1158.680541992188	92.5126953125	924.5718383789062	1407.906494140625	130.0507965087891	897.4866333007812	1330.036499023438	287.330810546875	859.9463500976562	1262.036987304688	80.02628326416016	1028.069213867188	1372.28173828125	127.9599456787109	1064.56494140625	1386.782470703125	221.2791595458984	1143.197998046875	1275.591552734375	209.5530242919922	1182.926391601562	1085.063598632812	255.689697265625	1137.991577148438	1051.6123046875	189.8683166503906	1116.090576171875	908.0828247070312	392.1018371582031	1192.06591796875	886.664794921875	369.4506530761719	1190.668823242188	992.0625	300.9663391113281	1178.829467773438	807.5935668945312	404.5573120117188	1128.485595703125	819.9883422851562	441.4216003417969	761.4363403320312	1390.680297851562	166.2390899658203	703.7909545898438	1328.127685546875	141.7677612304688	642.9677734375	1070.927856445312	134.2694244384766	737.2858276367188	1052.378784179688	130.3596801757812	635.2973022460938	872.5126953125	284.9565734863281	577.41650390625	862.400390625	238.5137939453125	616.0607299804688	1011.064086914062	161.6587982177734	610.6768188476562	701.2382202148438	305.4853515625	565.4564208984375	774.4807739257812	252.9411773681641	828.9927368164062	1595.407348632812	167.6105804443359	964.3063354492188	1599.067138671875	315.270751953125	842.3731689453125	1603.743530273438	300.912353515625	990.870849609375	1586.9013671875	169.1924438476562	1082.869384765625	958.9995727539062	198.9158782958984	724.9268798828125	961.3258056640625	172.5848236083984	772.082275390625	970.5529174804688	311.1911926269531	1034.607055664062	960.7352294921875	312.6024169921875	1039.55810546875	466.6204528808594	275.4817504882812	1058.239868164062	608.4972534179688	260.0456237792969	1000.024658203125	33.49701690673828	178.9326324462891	1030.984130859375	233.7351837158203	231.3914489746094	913.65673828125	36.05906295776367	387.5960388183594	893.126708984375	39.66972732543945	305.4773864746094	999.088623046875	32.36308288574219	306.2996826171875	947.48046875	28.97753715515137	136.9821929931641	741.7180786132812	471.5445251464844	264.2817687988281	714.99072265625	734.4810180664062	266.0706176757812	766.331298828125	48.88717269897461	213.9713134765625	752.7845458984375	344.9111022949219	275.4733581542969	815.6406860351562	33.12991333007812	396.0159606933594	851.2882690429688	36.16944122314453	321.3296203613281	753.4281616210938	39.60746383666992	296.6366271972656	823.1697387695312	34.39248275756836	145.3222808837891	601.7868041992188	773.181640625	313.42041015625	1114.382934570312	733.508056640625	440.6454467773438	nan	nan	nan	nan	nan	nan	
590	5.89	844.1654052734375	980.132568359375	99.77368927001953	976.563232421875	970.9547729492188	103.9922561645508	908.947021484375	1055.355834960938	100.9472122192383	889.7891845703125	1211.399169921875	341.928955078125	916.22607421875	1158.92724609375	93.50283813476562	923.9844970703125	1408.145629882812	131.1871948242188	897.09130859375	1330.095581054688	288.441162109375	859.3033447265625	1262.340942382812	81.08052825927734	1027.523681640625	1372.524047851562	128.9967651367188	1064.119873046875	1386.9228515625	222.2868499755859	1142.695068359375	1275.697265625	210.1327056884766	1182.013916015625	1084.770751953125	255.1503295898438	1137.093872070312	1051.834228515625	189.1498260498047	1115.427001953125	905.8040771484375	389.31689453125	1191.2470703125	884.7357788085938	366.3501586914062	1189.810668945312	991.1272583007812	299.3951110839844	1177.948852539062	805.053466796875	400.12841796875	1127.6025390625	816.831787109375	437.1268920898438	760.924072265625	1390.862915039062	167.6283874511719	703.123046875	1328.339965820312	143.3497772216797	641.3400268554688	1071.291748046875	137.1669006347656	735.505859375	1052.275512695312	132.5768585205078	634.7855224609375	873.9273681640625	289.3124084472656	576.4228515625	863.588134765625	243.5538024902344	614.6075439453125	1011.59375	165.182861328125	609.912109375	702.9900512695312	311.8584594726562	564.3358154296875	775.8428344726562	258.8661499023438	828.1087036132812	1595.612060546875	169.3755493164062	964.6690673828125	1599.193603515625	315.9740295410156	842.54296875	1603.912841796875	302.5544738769531	990.0465698242188	1586.9814453125	169.6553802490234	1082.420166015625	959.1626586914062	199.8240661621094	724.2595825195312	961.1201171875	173.6163635253906	771.5180053710938	970.6080932617188	311.9085998535156	1034.02392578125	960.4041748046875	313.32275390625	1039.537109375	466.6304626464844	275.0614318847656	1058.068725585938	608.5759887695312	260.0625915527344	1000.024291992188	33.51144790649414	178.9122314453125	1030.983154296875	233.7767791748047	231.0974426269531	913.6839599609375	36.0793571472168	387.5779418945312	893.1328735351562	39.69646453857422	305.508544921875	999.0787353515625	32.36230850219727	306.28173828125	947.4525756835938	28.96625709533691	136.9740447998047	741.069580078125	471.5451354980469	262.8819885253906	714.26806640625	734.424560546875	265.7935791015625	766.3206176757812	48.80617141723633	213.9328002929688	752.368408203125	344.9405517578125	274.4019775390625	815.654052734375	33.11943817138672	396.0199279785156	851.2840576171875	36.2178955078125	321.36572265625	753.4981079101562	39.61020278930664	296.6256408691406	823.0933227539062	34.30521392822266	145.3005218505859	601.18701171875	774.9822998046875	318.9846801757812	1112.988403320312	730.24462890625	434.701171875	nan	nan	nan	nan	nan	nan	
591	5.9	843.8297729492188	980.447998046875	100.5147171020508	976.2001342773438	971.243896484375	104.7844314575195	908.59130859375	1055.615478515625	101.8433380126953	889.425048828125	1211.395141601562	342.8860778808594	915.7931518554688	1159.15673828125	94.45996856689453	923.4032592773438	1408.381103515625	132.2686920166016	896.6904907226562	1330.143188476562	289.4903564453125	858.671630859375	1262.627807617188	82.08589172363281	1026.97802734375	1372.744995117188	129.9798278808594	1063.6669921875	1387.044921875	223.2329711914062	1142.173950195312	1275.78076171875	210.6792602539062	1181.08544921875	1084.47607421875	254.589111328125	1136.155395507812	1052.042846679688	188.4386444091797	1114.8154296875	903.6106567382812	386.5952758789062	1190.452880859375	882.8792114257812	363.2479553222656	1188.946655273438	990.21826171875	297.8104248046875	1177.107421875	802.6085815429688	395.7153930664062	1126.767822265625	813.7788696289062	432.8610534667969	760.412109375	1391.030395507812	168.9580688476562	702.443359375	1328.536499023438	144.8708953857422	639.7141723632812	1071.656127929688	140.0437316894531	733.7234497070312	1052.187255859375	134.7459716796875	634.2974243164062	875.2888793945312	293.562255859375	575.4437255859375	864.75244140625	248.4754028320312	613.1893310546875	1012.13037109375	168.6942596435547	609.1495361328125	704.6810913085938	317.9193420410156	563.2625122070312	777.1790771484375	264.6234741210938	827.2034301757812	1595.790283203125	171.1205596923828	964.989501953125	1599.272705078125	316.6602172851562	842.7272338867188	1604.050415039062	304.1708068847656	989.2052612304688	1587.060791015625	170.0939788818359	1081.975463867188	959.3112182617188	200.693359375	723.56591796875	960.9194946289062	174.6771850585938	770.9559936523438	970.6353149414062	312.5835876464844	1033.463623046875	960.12939453125	313.9837951660156	1039.510864257812	466.6434020996094	274.6477966308594	1057.886840820312	608.6405029296875	260.0752258300781	1000.024108886719	33.51204299926758	178.8852386474609	1030.980712890625	233.8157806396484	230.8107147216797	913.7101440429688	36.10185623168945	387.5613098144531	893.1353149414062	39.71773529052734	305.55078125	999.0692138671875	32.36137008666992	306.2666931152344	947.42724609375	28.95338439941406	136.9671325683594	740.4359130859375	471.5429992675781	261.53466796875	713.6939697265625	734.40234375	265.5980224609375	766.32470703125	48.73810577392578	213.9030914306641	752.000732421875	344.9541320800781	273.3441772460938	815.6765747070312	33.10493469238281	396.0298156738281	851.2808227539062	36.28605651855469	321.4342041015625	753.5907592773438	39.61282348632812	296.6188354492188	823.0331420898438	34.21909332275391	145.285400390625	600.6607666015625	776.71484375	324.364990234375	1111.912353515625	727.169189453125	428.8984680175781	nan	nan	nan	nan	nan	nan	
592	5.91	843.4888305664062	980.7424926757812	101.2235794067383	975.8331909179688	971.5046997070312	105.5347290039062	908.22021484375	1055.868896484375	102.706413269043	889.0577392578125	1211.391235351562	343.7883605957031	915.3646850585938	1159.367919921875	95.37937927246094	922.830810546875	1408.61181640625	133.2937622070312	896.2821655273438	1330.183227539062	290.4767761230469	858.0479125976562	1262.892822265625	83.04609680175781	1026.429321289062	1372.943481445312	130.9024200439453	1063.2060546875	1387.148071289062	224.1115417480469	1141.632080078125	1275.8408203125	211.1821899414062	1180.146362304688	1084.177978515625	254.0041656494141	1135.172119140625	1052.235473632812	187.7338714599609	1114.234130859375	901.4999389648438	383.9429626464844	1189.687133789062	881.09375	360.152099609375	1188.076538085938	989.3331909179688	296.2174377441406	1176.317138671875	800.2616577148438	391.3341979980469	1126.009765625	810.83837890625	428.6515502929688	759.8997192382812	1391.185668945312	170.2235107421875	701.75830078125	1328.715942382812	146.3295135498047	638.0968017578125	1072.021606445312	142.8917083740234	731.9417724609375	1052.114013671875	136.8647155761719	633.8280029296875	876.5935668945312	297.6943054199219	574.4743041992188	865.8876342773438	253.2668914794922	611.8102416992188	1012.67138671875	172.1839294433594	608.4175415039062	706.2898559570312	323.6657104492188	562.2374877929688	778.4837646484375	270.2006225585938	826.2772216796875	1595.944213867188	172.8375244140625	965.2695922851562	1599.306762695312	317.3262634277344	842.9402465820312	1604.158569335938	305.7640075683594	988.3524169921875	1587.1396484375	170.5130004882812	1081.539428710938	959.4482421875	201.5200805664062	722.8921508789062	960.7854614257812	175.6983489990234	770.4061279296875	970.6392211914062	313.2232055664062	1032.924682617188	959.9285888671875	314.6158752441406	1039.482666015625	466.6639709472656	274.2418823242188	1057.69384765625	608.6902465820312	260.0741882324219	1000.021362304688	33.49989700317383	178.8541107177734	1030.979248046875	233.8567199707031	230.5324401855469	913.7313232421875	36.12313079833984	387.5457763671875	893.1348876953125	39.72919082641602	305.5950622558594	999.0604858398438	32.36074447631836	306.2547607421875	947.402099609375	28.94023704528809	136.9607086181641	739.8121948242188	471.5342712402344	260.225830078125	713.2669067382812	734.408935546875	265.4757080078125	766.3404541015625	48.67551803588867	213.8800659179688	751.65283203125	344.9568481445312	272.2905883789062	815.7041015625	33.09124374389648	396.0402526855469	851.2789306640625	36.35593795776367	321.511474609375	753.6837158203125	39.6131591796875	296.616943359375	822.9857788085938	34.1334228515625	145.2746124267578	600.2056884765625	778.37060546875	329.5535583496094	1111.23388671875	724.3041381835938	423.291748046875	nan	nan	nan	nan	nan	nan	
